PathFileType	4	(X/Y/Z)	Patient4_TMGait_0pt6_01_right_08.trc.trc
DataRate	CameraRate	NumFrames	NumMarkers	Units	OrigDataRate	OrigDataStartFrame	OrigNumFrames
82.352941176471	82.352941176471	4	33	mm	82.352941176471	53	       141
Frame#	Time	Sacral			L.Shoulder			Chest			R.Shoulder			Neck			R.ASIS			L.ASIS			R.Thigh.Superior			R.Thigh.Lateral			R.Thigh.Inferior			R.Patella			L.Thigh.Superior			L.Thigh.Lateral			L.Thigh.Inferior			L.Patella			L.Shank.Superior			L.Shank.Lateral			L.Shank.Inferior			R.Shank.Superior			R.Shank.Lateral			R.Shank.Inferior			R.Heel			R.Midfoot.Superior			R.Midfoot.Lateral			R.Toe			L.Heel			L.Midfoot.Lateral			L.Midfoot.Superior			L.Toe			L.Elbow			L.Wrist			R.Elbow			R.Wrist			
		X1	Y1	Z1	X2	Y2	Z2	X3	Y3	Z3	X4	Y4	Z4	X5	Y5	Z5	X6	Y6	Z6	X7	Y7	Z7	X8	Y8	Z8	X9	Y9	Z9	X10	Y10	Z10	X11	Y11	Z11	X12	Y12	Z12	X13	Y13	Z13	X14	Y14	Z14	X15	Y15	Z15	X16	Y16	Z16	X17	Y17	Z17	X18	Y18	Z18	X19	Y19	Z19	X20	Y20	Z20	X21	Y21	Z21	X22	Y22	Z22	X23	Y23	Z23	X24	Y24	Z24	X25	Y25	Z25	X26	Y26	Z26	X27	Y27	Z27	X28	Y28	Z28	X29	Y29	Z29	X30	Y30	Z30	X31	Y31	Z31	X32	Y32	Z32	X33	Y33	Z33	

53	9.751428571429	689.749383904712	1003.959593979051	531.254639954003	830.626670301696	1441.401969286817	351.262050881354	952.307757724291	1371.921206671806	499.070948889793	884.974573675369	1437.309415784604	682.134095111108	832.159847523065	1497.755951347215	507.672376794580	923.032938466391	948.505919290320	636.752595133269	895.905644151454	967.399112075342	363.350019760572	950.863389907602	743.084578579911	607.074985921840	862.895851635402	636.109679765666	665.921012260410	935.554765969296	582.648210316869	586.428713898714	929.814909934303	496.453949618711	591.328483873350	982.436303128450	784.362827447145	387.016391696097	937.218889402696	657.808850774839	306.902766340982	1042.508073742577	597.476011736259	363.077870108410	1064.809097146404	519.716505626827	353.048570433062	1026.371006384048	444.721247812151	344.025940794922	917.043592036431	345.918923370286	298.553461824296	968.659033291910	223.045574266442	347.450061358441	903.188202897263	406.537512397001	593.770639795763	829.401454841234	300.103300275621	647.673694093882	877.649116081830	208.145722917102	583.477966124417	746.820740424156	42.182129086111	539.032565559066	917.307668196776	98.042105452847	582.249648548102	827.415988422475	36.484968099580	616.919172799493	1035.185080161711	46.570187119138	614.064981044332	834.691240201259	72.931450434173	392.098818198552	897.256036306506	68.459565715075	303.173285259566	987.909095821943	123.700273296927	319.534494126776	1105.009604611941	66.150147046958	272.113700281186	784.803974645907	1083.804190914984	249.685518557002	852.137568320568	832.178343959456	239.949372058777	958.441846810743	1097.951068236631	805.551764983757	1177.431701014122	959.808653457007	783.848271077963	
54	9.763571428571	689.264868760524	1004.050503001934	532.016447796821	829.265501540150	1441.475985588795	351.639309758361	951.740518484651	1371.883326580311	498.713131822089	885.390259452816	1437.136533258647	682.217124703081	831.679358041173	1497.675116159263	508.054843157105	922.932927548347	948.341936940655	636.347368805666	894.668904099667	967.281076225559	363.074060655734	948.632972232506	742.370372046606	606.575716662594	859.747649252442	636.002248592706	665.885116870868	931.229568933163	581.963243102719	586.096609523558	924.720531180787	496.007442988169	590.936342638391	980.575953072127	783.808254334204	387.038129744108	935.323960623520	657.577563768977	306.461920673141	1039.955901821895	596.987287782289	363.503461362847	1063.463034728216	521.453806305308	353.571354383257	1029.026388784512	446.784528135303	344.146201610968	926.931542024410	341.727906013784	296.811963093433	985.411012666440	222.007478827891	346.291601528010	897.544088460670	406.174746934909	593.453921327869	823.505197980548	300.058110427303	647.631819627627	871.057862016900	207.884831035987	583.265793402752	739.495951640355	42.208372786962	539.053232453950	910.019466688658	97.954156715685	582.215018220877	820.086549074043	36.507456590260	616.943469479750	1027.849923744382	46.406512667216	614.106655151884	860.044353521167	64.951256645039	388.997978127596	924.618731537446	62.915138065520	301.445989095325	1011.998279261919	122.759983362644	318.853349278589	1132.670510306351	70.725386645627	274.470868361529	776.935987194110	1084.787808071031	250.685506751068	832.997210471020	830.745560284195	240.123582725924	965.863183486988	1099.856880902372	805.465448367140	1192.261236138178	975.168792224803	781.384072773692	
55	9.775714285714	688.788328861740	1004.155296531830	532.636084637539	828.076169303112	1441.527252372008	351.865446288717	951.269244674277	1371.783969312882	498.245457117523	885.848213259922	1436.934773902280	682.150798935048	831.281151547860	1497.560037340396	508.270446273553	922.834363882018	948.133035474258	635.849619364541	893.477755065011	967.076248143576	362.701956455810	946.339355054025	741.571273489447	606.118824418304	856.439477359634	635.883093019606	665.775477684965	926.762381540175	581.238591852281	585.720318714020	919.454714513583	495.526284995624	590.474258860565	978.452164889627	782.892897456748	386.960959861724	932.939956713411	657.094579817800	305.856525526771	1036.867270358262	596.085753550170	363.836012844148	1061.463078801403	522.843505841977	354.179547113738	1030.968386785821	448.797734957501	344.405449421589	936.453433461149	337.953844010971	295.135376358974	1001.419350315374	221.807853319134	345.447569513433	891.737991084415	405.833612117853	593.099798263981	817.486316256354	300.023435544385	647.576132896706	864.377087831735	207.649073757856	583.050014002487	732.150824854429	42.229589975005	539.078277116114	902.702881967530	97.874198096575	582.180354506636	812.740889815297	36.522665899349	616.969394878304	1020.495523784471	46.266804368231	614.137840300420	884.714681318600	58.590439430914	386.124724653867	951.516100975376	58.623966437699	300.239277451150	1035.436126025020	122.784667555126	318.717207913037	1159.420963617857	76.081213309674	278.076616151399	769.192544209215	1085.980765075080	251.397846450665	814.654721023506	830.146630959173	240.313832362522	972.874183700490	1101.755085259892	805.052465292796	1205.795692929534	990.870200994147	778.632367098322	
56	9.787857142857	688.312830762324	1004.282539894583	533.106234341653	827.060315260886	1441.551875677151	351.936923880976	950.892820333387	1371.626705625205	497.671887362667	886.343859665504	1436.720677975904	681.930115503569	830.967947105414	1497.414149032255	508.313902157417	922.736871467501	947.877075208771	635.262198403231	892.325100496222	966.804163917128	362.237052799966	943.997198669459	740.698529434542	605.661967610965	853.019220372190	635.759409883657	665.578728445186	922.197431434126	580.484803262959	585.280585977163	914.064967139069	495.009699547605	589.937157512306	976.122958444863	781.708866736066	386.776296159923	930.184324936322	656.407067612144	305.113720891303	1033.422816729327	594.892509505965	364.058824620483	1058.982716374020	523.949614411126	354.852521691304	1032.285810549796	450.746245444852	344.760036504939	945.426606125652	334.668567855115	293.648017384062	1016.443126352840	222.390169604664	344.921567184174	885.815265108014	405.510739121768	592.707069008491	811.374269461811	300.007961338928	647.506374411521	857.625659226641	207.438574072332	582.830570591066	724.786704958682	42.245920435032	539.108888189265	895.359823329984	97.802013186685	582.145740147763	805.379566443430	36.529918277450	616.994786803573	1013.125217313416	46.150225955809	614.157873132630	908.273569992292	53.823384125922	383.655207171506	977.407977956541	55.550742387495	299.621777657435	1057.789194906123	123.702476269263	319.079276653879	1184.778192670219	82.072946142575	282.659090843522	761.605696809445	1087.370361171726	251.827801112006	797.227313041141	830.276468316217	240.524625416177	979.481655793797	1103.636803305856	804.316304415285	1218.006848738640	1006.772815512430	775.618699424831	
